<svg width="40" height="40" viewBox="0 0 40 40" fill="none" xmlns="http://www.w3.org/2000/svg">
<path d="M34 4H32V2C32 0.8 31.2 0 30 0C28.8 0 28 0.8 28 2V4H12V2C12 0.8 11.2 0 10 0C8.8 0 8 0.8 8 2V4H6C2.6 4 0 6.6 0 10V12H40V10C40 6.6 37.4 4 34 4ZM0 34C0 37.4 2.6 40 6 40H34C37.4 40 40 37.4 40 34V16H0V34ZM30 20C31.2 20 32 20.8 32 22C32 23.2 31.2 24 30 24C28.8 24 28 23.2 28 22C28 20.8 28.8 20 30 20ZM30 28C31.2 28 32 28.8 32 30C32 31.2 31.2 32 30 32C28.8 32 28 31.2 28 30C28 28.8 28.8 28 30 28ZM20 20C21.2 20 22 20.8 22 22C22 23.2 21.2 24 20 24C18.8 24 18 23.2 18 22C18 20.8 18.8 20 20 20ZM20 28C21.2 28 22 28.8 22 30C22 31.2 21.2 32 20 32C18.8 32 18 31.2 18 30C18 28.8 18.8 28 20 28ZM10 20C11.2 20 12 20.8 12 22C12 23.2 11.2 24 10 24C8.8 24 8 23.2 8 22C8 20.8 8.8 20 10 20ZM10 28C11.2 28 12 28.8 12 30C12 31.2 11.2 32 10 32C8.8 32 8 31.2 8 30C8 28.8 8.8 28 10 28Z" fill="white"/>
</svg>
