<svg width="40" height="40" viewBox="0 0 40 40" fill="none" xmlns="http://www.w3.org/2000/svg">
<path d="M22.29 0.840321C21.6711 0.30068 20.8517 0 20 0C19.1483 0 18.3289 0.30068 17.71 0.840321L1.56334 14.9142C1.06894 15.3457 0.675274 15.8657 0.406455 16.4424C0.137637 17.0192 -0.000671907 17.6404 2.45417e-06 18.2682V35.3917C0.000886124 36.6142 0.52806 37.7863 1.46565 38.6505C2.40323 39.5146 3.6745 40 5 40H10C11.3261 40 12.5979 39.5142 13.5355 38.6494C14.4732 37.7846 15 36.6116 15 35.3886V27.703C15 27.2954 15.1756 26.9044 15.4882 26.6161C15.8007 26.3279 16.2246 26.1659 16.6667 26.1659H23.3333C23.7754 26.1659 24.1993 26.3279 24.5118 26.6161C24.8244 26.9044 25 27.2954 25 27.703V35.3886C25 36.6116 25.5268 37.7846 26.4645 38.6494C27.4021 39.5142 28.6739 40 30 40H35C36.3261 40 37.5979 39.5142 38.5355 38.6494C39.4732 37.7846 40 36.6116 40 35.3886V18.2651C39.9998 17.6377 39.8607 17.0168 39.5914 16.4407C39.322 15.8645 38.9279 15.3451 38.4333 14.9142L22.29 0.834172V0.840321Z" fill="white"/>
</svg>