<svg width="35" height="50" viewBox="0 0 35 50" fill="none" xmlns="http://www.w3.org/2000/svg">
<path d="M17.5 0C19.4891 0 21.3968 0.831765 22.8033 2.31232C24.2098 3.79287 25 5.80092 25 7.89474V23.6842C25 25.778 24.2098 27.7861 22.8033 29.2666C21.3968 30.7472 19.4891 31.5789 17.5 31.5789C15.5109 31.5789 13.6032 30.7472 12.1967 29.2666C10.7902 27.7861 10 25.778 10 23.6842V7.89474C10 5.80092 10.7902 3.79287 12.1967 2.31232C13.6032 0.831765 15.5109 0 17.5 0ZM35 23.6842C35 32.9737 28.475 40.6316 20 41.9211V50H15V41.9211C6.525 40.6316 0 32.9737 0 23.6842H5C5 27.1739 6.31696 30.5207 8.66117 32.9882C11.0054 35.4558 14.1848 36.8421 17.5 36.8421C20.8152 36.8421 23.9946 35.4558 26.3388 32.9882C28.683 30.5207 30 27.1739 30 23.6842H35Z" fill="#67DDDD"/>
<path d="M17.5 0C19.4891 0 21.3968 0.831765 22.8033 2.31232C24.2098 3.79287 25 5.80092 25 7.89474V23.6842C25 25.778 24.2098 27.7861 22.8033 29.2666C21.3968 30.7472 19.4891 31.5789 17.5 31.5789C15.5109 31.5789 13.6032 30.7472 12.1967 29.2666C10.7902 27.7861 10 25.778 10 23.6842V7.89474C10 5.80092 10.7902 3.79287 12.1967 2.31232C13.6032 0.831765 15.5109 0 17.5 0ZM35 23.6842C35 32.9737 28.475 40.6316 20 41.9211V50H15V41.9211C6.525 40.6316 0 32.9737 0 23.6842H5C5 27.1739 6.31696 30.5207 8.66117 32.9882C11.0054 35.4558 14.1848 36.8421 17.5 36.8421C20.8152 36.8421 23.9946 35.4558 26.3388 32.9882C28.683 30.5207 30 27.1739 30 23.6842H35Z" stroke="black"/>
</svg>
