<svg width="120" height="120" viewBox="0 0 120 120" fill="none" xmlns="http://www.w3.org/2000/svg">
<path d="M60 0C61.1366 0 62.2267 0.451529 63.0305 1.25526C63.8342 2.05898 64.2857 3.14907 64.2857 4.28571V12.8571C64.2857 13.9938 63.8342 15.0839 63.0305 15.8876C62.2267 16.6913 61.1366 17.1429 60 17.1429C58.8634 17.1429 57.7733 16.6913 56.9695 15.8876C56.1658 15.0839 55.7143 13.9938 55.7143 12.8571V4.28571C55.7143 3.14907 56.1658 2.05898 56.9695 1.25526C57.7733 0.451529 58.8634 0 60 0ZM90 60C90 67.9565 86.8393 75.5871 81.2132 81.2132C75.5871 86.8393 67.9565 90 60 90C52.0435 90 44.4129 86.8393 38.7868 81.2132C33.1607 75.5871 30 67.9565 30 60C30 52.0435 33.1607 44.4129 38.7868 38.7868C44.4129 33.1607 52.0435 30 60 30C67.9565 30 75.5871 33.1607 81.2132 38.7868C86.8393 44.4129 90 52.0435 90 60ZM115.714 64.2857C116.851 64.2857 117.941 63.8342 118.745 63.0305C119.548 62.2267 120 61.1366 120 60C120 58.8634 119.548 57.7733 118.745 56.9695C117.941 56.1658 116.851 55.7143 115.714 55.7143H107.143C106.006 55.7143 104.916 56.1658 104.112 56.9695C103.309 57.7733 102.857 58.8634 102.857 60C102.857 61.1366 103.309 62.2267 104.112 63.0305C104.916 63.8342 106.006 64.2857 107.143 64.2857H115.714ZM60 102.857C61.1366 102.857 62.2267 103.309 63.0305 104.112C63.8342 104.916 64.2857 106.006 64.2857 107.143V115.714C64.2857 116.851 63.8342 117.941 63.0305 118.745C62.2267 119.548 61.1366 120 60 120C58.8634 120 57.7733 119.548 56.9695 118.745C56.1658 117.941 55.7143 116.851 55.7143 115.714V107.143C55.7143 106.006 56.1658 104.916 56.9695 104.112C57.7733 103.309 58.8634 102.857 60 102.857ZM12.8571 64.2857C13.9938 64.2857 15.0839 63.8342 15.8876 63.0305C16.6913 62.2267 17.1429 61.1366 17.1429 60C17.1429 58.8634 16.6913 57.7733 15.8876 56.9695C15.0839 56.1658 13.9938 55.7143 12.8571 55.7143H4.28571C3.14907 55.7143 2.05898 56.1658 1.25526 56.9695C0.451529 57.7733 0 58.8634 0 60C0 61.1366 0.451529 62.2267 1.25526 63.0305C2.05898 63.8342 3.14907 64.2857 4.28571 64.2857H12.8571ZM14.1171 14.1171C14.9208 13.3137 16.0107 12.8623 17.1471 12.8623C18.2836 12.8623 19.3735 13.3137 20.1771 14.1171L28.7486 22.6886C29.1579 23.0839 29.4844 23.5568 29.709 24.0797C29.9336 24.6026 30.0518 25.1649 30.0568 25.734C30.0617 26.303 29.9533 26.8674 29.7378 27.3941C29.5223 27.9208 29.2041 28.3993 28.8017 28.8017C28.3993 29.2041 27.9208 29.5223 27.3941 29.7378C26.8674 29.9533 26.303 30.0617 25.734 30.0568C25.1649 30.0518 24.6026 29.9336 24.0797 29.709C23.5568 29.4844 23.0839 29.1579 22.6886 28.7486L14.1171 20.1771C13.3137 19.3735 12.8623 18.2836 12.8623 17.1471C12.8623 16.0107 13.3137 14.9208 14.1171 14.1171ZM20.1771 105.891C19.3688 106.672 18.2863 107.104 17.1626 107.094C16.0389 107.085 14.964 106.634 14.1693 105.839C13.3747 105.045 12.924 103.97 12.9143 102.846C12.9045 101.722 13.3365 100.64 14.1171 99.8314L22.6886 91.26C23.0839 90.8507 23.5568 90.5242 24.0797 90.2996C24.6026 90.075 25.1649 89.9567 25.734 89.9518C26.303 89.9468 26.8674 90.0553 27.3941 90.2708C27.9208 90.4863 28.3993 90.8045 28.8017 91.2069C29.2041 91.6093 29.5223 92.0878 29.7378 92.6145C29.9533 93.1412 30.0617 93.7055 30.0568 94.2746C30.0518 94.8436 29.9336 95.406 29.709 95.9289C29.4844 96.4517 29.1579 96.9247 28.7486 97.32L20.1771 105.891ZM105.891 14.1171C105.088 13.3137 103.998 12.8623 102.861 12.8623C101.725 12.8623 100.635 13.3137 99.8314 14.1171L91.26 22.6886C90.4793 23.4969 90.0473 24.5794 90.0571 25.7031C90.0669 26.8268 90.5176 27.9018 91.3122 28.6964C92.1068 29.491 93.1817 29.9417 94.3054 29.9515C95.4291 29.9612 96.5117 29.5292 97.32 28.7486L105.891 20.1771C106.695 19.3735 107.146 18.2836 107.146 17.1471C107.146 16.0107 106.695 14.9208 105.891 14.1171ZM99.8314 105.891C100.64 106.672 101.722 107.104 102.846 107.094C103.97 107.085 105.045 106.634 105.839 105.839C106.634 105.045 107.085 103.97 107.094 102.846C107.104 101.722 106.672 100.64 105.891 99.8314L97.32 91.26C96.9247 90.8507 96.4517 90.5242 95.9289 90.2996C95.406 90.075 94.8436 89.9567 94.2746 89.9518C93.7055 89.9468 93.1412 90.0553 92.6145 90.2708C92.0878 90.4863 91.6093 90.8045 91.2069 91.2069C90.8045 91.6093 90.4863 92.0878 90.2708 92.6145C90.0553 93.1412 89.9468 93.7055 89.9518 94.2746C89.9567 94.8436 90.075 95.406 90.2996 95.9289C90.5242 96.4517 90.8507 96.9247 91.26 97.32L99.8314 105.891Z" fill="#FFFF00"/>
</svg>